# xmcd
#
# Track frame offsets:
#	150
#	24549
#	45251
#	67252
#	89670
#	109959
#	161558
#	189664
#	211953
#	239975
#	269727
#
# Disc length: 4016 seconds
#
# Revision: 15
# Processed by: cddbd v1.5.2PL0 Copyright (c) Steve Scherf et al.
# Submitted via: Jack! The Knife 20 Magnifico
#
DISCID=ab0fae0b
DTITLE=Judas Priest - Epitaph [CD 1)
DYEAR=2013
DGENRE=Metal
TTITLE0=Battle Hymn - Rapid Fire
TTITLE1=Metal Gods
TTITLE2=Heading Out To The Highway
TTITLE3=Judas Rising
TTITLE4=Starbreaker
TTITLE5=Victim Of Changes
TTITLE6=Never Satisfied
TTITLE7=Diamonds And Rust
TTITLE8=Prophecy
TTITLE9=Night Crawler
TTITLE10=Turbo Lover
EXTD=
EXTT0=Tipton, Halford, Downing
EXTT1=Tipton, Halford, Downing
EXTT2=Tipton, Halford, Downing
EXTT3=Tipton, Halford, Downing
EXTT4=Tipton, Halford, Downing
EXTT5=Downing, Halford, Tipton, Atkins
EXTT6=Atkins, Downing
EXTT7=Joan Baez
EXTT8=Tipton, Halford, Downing
EXTT9=Tipton, Halford, Downing
EXTT10=Tipton, Halford, Downing
PLAYORDER=
